<svg width="56" height="56" viewBox="0 0 56 56" fill="none" xmlns="http://www.w3.org/2000/svg">
<circle cx="28" cy="28" r="20" fill="#8C64D8"/>
<path d="M36.121 25.879L25 37H19V31L30.121 19.879C30.707 19.293 31.475 19 32.243 19C33.011 19 33.779 19.293 34.364 19.879L36.121 21.636C37.293 22.808 37.293 24.707 36.121 25.879ZM31.172 28L28 24.828L21 31.828V35H24.172L31.172 28ZM34.707 23.05L32.95 21.293C32.559 20.902 31.926 20.903 31.536 21.293L29.415 23.414L32.587 26.586L34.708 24.465C35.097 24.075 35.097 23.44 34.707 23.05Z" fill="white"/>
</svg>
