<svg width="18" height="17" viewBox="0 0 18 17" fill="none" xmlns="http://www.w3.org/2000/svg">
<path d="M15.6667 5.31666V0.999997C15.6667 0.778984 15.5789 0.567022 15.4226 0.410742C15.2663 0.254461 15.0544 0.166664 14.8333 0.166664C14.6123 0.166664 14.4004 0.254461 14.2441 0.410742C14.0878 0.567022 14 0.778984 14 0.999997V5.31666C13.5174 5.49183 13.1004 5.81135 12.8057 6.2318C12.511 6.65225 12.3529 7.15323 12.3529 7.66666C12.3529 8.1801 12.511 8.68108 12.8057 9.10153C13.1004 9.52197 13.5174 9.84149 14 10.0167V16C14 16.221 14.0878 16.433 14.2441 16.5893C14.4004 16.7455 14.6123 16.8333 14.8333 16.8333C15.0544 16.8333 15.2663 16.7455 15.4226 16.5893C15.5789 16.433 15.6667 16.221 15.6667 16V10.0167C16.1493 9.84149 16.5663 9.52197 16.861 9.10153C17.1557 8.68108 17.3137 8.1801 17.3137 7.66666C17.3137 7.15323 17.1557 6.65225 16.861 6.2318C16.5663 5.81135 16.1493 5.49183 15.6667 5.31666ZM14.8333 8.5C14.6685 8.5 14.5074 8.45112 14.3704 8.35956C14.2333 8.26799 14.1265 8.13784 14.0634 7.98557C14.0004 7.8333 13.9839 7.66574 14.016 7.50409C14.0482 7.34244 14.1275 7.19395 14.2441 7.07741C14.3606 6.96086 14.5091 6.8815 14.6708 6.84934C14.8324 6.81719 15 6.83369 15.1522 6.89676C15.3045 6.95984 15.4347 7.06665 15.5262 7.20369C15.6178 7.34073 15.6667 7.50185 15.6667 7.66666C15.6667 7.88768 15.5789 8.09964 15.4226 8.25592C15.2663 8.4122 15.0544 8.5 14.8333 8.5ZM9.83334 10.3167V0.999997C9.83334 0.778984 9.74555 0.567022 9.58926 0.410742C9.43298 0.254461 9.22102 0.166664 9.00001 0.166664C8.779 0.166664 8.56703 0.254461 8.41075 0.410742C8.25447 0.567022 8.16668 0.778984 8.16668 0.999997V10.3167C7.68405 10.4918 7.26706 10.8114 6.97238 11.2318C6.6777 11.6522 6.51961 12.1532 6.51961 12.6667C6.51961 13.1801 6.6777 13.6811 6.97238 14.1015C7.26706 14.522 7.68405 14.8415 8.16668 15.0167V16C8.16668 16.221 8.25447 16.433 8.41075 16.5893C8.56703 16.7455 8.779 16.8333 9.00001 16.8333C9.22102 16.8333 9.43298 16.7455 9.58926 16.5893C9.74555 16.433 9.83334 16.221 9.83334 16V15.0167C10.316 14.8415 10.733 14.522 11.0276 14.1015C11.3223 13.6811 11.4804 13.1801 11.4804 12.6667C11.4804 12.1532 11.3223 11.6522 11.0276 11.2318C10.733 10.8114 10.316 10.4918 9.83334 10.3167ZM9.00001 13.5C8.83519 13.5 8.67408 13.4511 8.53703 13.3596C8.39999 13.268 8.29318 13.1378 8.23011 12.9856C8.16704 12.8333 8.15053 12.6657 8.18269 12.5041C8.21484 12.3424 8.29421 12.194 8.41075 12.0774C8.5273 11.9609 8.67578 11.8815 8.83743 11.8493C8.99909 11.8172 9.16664 11.8337 9.31891 11.8968C9.47118 11.9598 9.60133 12.0666 9.6929 12.2037C9.78447 12.3407 9.83334 12.5018 9.83334 12.6667C9.83334 12.8877 9.74555 13.0996 9.58926 13.2559C9.43298 13.4122 9.22102 13.5 9.00001 13.5ZM4.00001 3.65V0.999997C4.00001 0.778984 3.91221 0.567022 3.75593 0.410742C3.59965 0.254461 3.38769 0.166664 3.16668 0.166664C2.94566 0.166664 2.7337 0.254461 2.57742 0.410742C2.42114 0.567022 2.33334 0.778984 2.33334 0.999997V3.65C1.85072 3.82517 1.43373 4.14469 1.13904 4.56514C0.844362 4.98558 0.686279 5.48656 0.686279 6C0.686279 6.51343 0.844362 7.01441 1.13904 7.43486C1.43373 7.85531 1.85072 8.17483 2.33334 8.35V16C2.33334 16.221 2.42114 16.433 2.57742 16.5893C2.7337 16.7455 2.94566 16.8333 3.16668 16.8333C3.38769 16.8333 3.59965 16.7455 3.75593 16.5893C3.91221 16.433 4.00001 16.221 4.00001 16V8.35C4.48264 8.17483 4.89963 7.85531 5.19431 7.43486C5.48899 7.01441 5.64707 6.51343 5.64707 6C5.64707 5.48656 5.48899 4.98558 5.19431 4.56514C4.89963 4.14469 4.48264 3.82517 4.00001 3.65ZM3.16668 6.83333C3.00186 6.83333 2.84074 6.78446 2.7037 6.69289C2.56666 6.60132 2.45985 6.47117 2.39678 6.3189C2.3337 6.16663 2.3172 5.99907 2.34936 5.83742C2.38151 5.67577 2.46088 5.52729 2.57742 5.41074C2.69396 5.2942 2.84245 5.21483 3.0041 5.18268C3.16575 5.15052 3.33331 5.16702 3.48558 5.2301C3.63785 5.29317 3.768 5.39998 3.85957 5.53702C3.95114 5.67406 4.00001 5.83518 4.00001 6C4.00001 6.22101 3.91221 6.43297 3.75593 6.58925C3.59965 6.74553 3.38769 6.83333 3.16668 6.83333Z" fill="black"/>
</svg>
