<svg width="34" height="34" viewBox="0 0 34 34" fill="none" xmlns="http://www.w3.org/2000/svg">
<path d="M21.5335 11.65L14.3835 18.8167L11.6335 16.0667C11.4841 15.8922 11.3002 15.7505 11.0935 15.6505C10.8867 15.5505 10.6615 15.4942 10.4319 15.4854C10.2024 15.4765 9.97351 15.5152 9.75963 15.599C9.54576 15.6828 9.35151 15.8099 9.18909 15.9723C9.02666 16.1347 8.89957 16.329 8.81577 16.5428C8.73198 16.7567 8.69331 16.9856 8.70217 17.2151C8.71104 17.4447 8.76726 17.6699 8.86729 17.8767C8.96733 18.0834 9.10903 18.2673 9.2835 18.4167L13.2002 22.35C13.3559 22.5045 13.5406 22.6267 13.7437 22.7097C13.9467 22.7926 14.1642 22.8346 14.3835 22.8334C14.8207 22.8315 15.2397 22.6579 15.5502 22.35L23.8835 14.0167C24.0397 13.8618 24.1637 13.6774 24.2483 13.4743C24.3329 13.2712 24.3765 13.0534 24.3765 12.8334C24.3765 12.6134 24.3329 12.3955 24.2483 12.1924C24.1637 11.9893 24.0397 11.805 23.8835 11.65C23.5712 11.3396 23.1488 11.1654 22.7085 11.1654C22.2682 11.1654 21.8458 11.3396 21.5335 11.65ZM17.0002 0.333374C13.7038 0.333374 10.4815 1.31086 7.74067 3.14221C4.99985 4.97357 2.86364 7.57655 1.60218 10.622C0.340717 13.6674 0.0106619 17.0185 0.653749 20.2515C1.29684 23.4846 2.88418 26.4543 5.21506 28.7852C7.54593 31.116 10.5156 32.7034 13.7487 33.3465C16.9817 33.9896 20.3328 33.6595 23.3782 32.398C26.4237 31.1366 29.0266 29.0004 30.858 26.2595C32.6894 23.5187 33.6668 20.2964 33.6668 17C33.6668 14.8113 33.2357 12.6441 32.3982 10.622C31.5606 8.59989 30.3329 6.76257 28.7853 5.21493C27.2376 3.66728 25.4003 2.43963 23.3782 1.60205C21.3561 0.76447 19.1889 0.333374 17.0002 0.333374V0.333374ZM17.0002 30.3334C14.3631 30.3334 11.7852 29.5514 9.59257 28.0863C7.39991 26.6212 5.69095 24.5388 4.68178 22.1025C3.67261 19.6661 3.40856 16.9853 3.92303 14.3988C4.4375 11.8124 5.70738 9.43665 7.57208 7.57195C9.43678 5.70725 11.8126 4.43737 14.399 3.9229C16.9854 3.40843 19.6663 3.67248 22.1026 4.68165C24.539 5.69082 26.6213 7.39978 28.0864 9.59244C29.5515 11.7851 30.3335 14.363 30.3335 17C30.3335 20.5363 28.9287 23.9276 26.4283 26.4281C23.9278 28.9286 20.5364 30.3334 17.0002 30.3334V30.3334Z" fill="#8C64D8"/>
</svg>
