<svg width="152" height="29" viewBox="0 0 152 29" fill="none" xmlns="http://www.w3.org/2000/svg">
<g filter="url(#filter0_d_36_15906)">
<mask id="mask0_36_15906" style="mask-type:luminance" maskUnits="userSpaceOnUse" x="4" y="0" width="145" height="21">
<path d="M148.002 0H4.00244V20.9983H148.002V0Z" fill="white"/>
</mask>
<g mask="url(#mask0_36_15906)">
<path d="M9.69305 3.66821C12.7858 3.66821 15.27 6.02631 15.27 9.22283C15.27 12.3669 12.7351 14.7774 9.84515 14.7774C8.47625 14.7774 7.15805 14.3583 6.19475 13.2054H6.09335V21.2753H4.01465V10.0612C4.01465 6.18352 6.19475 3.66821 9.69305 3.66821ZM9.64235 12.891C11.6704 12.891 13.09 11.2141 13.09 9.17043C13.09 7.17915 11.7211 5.50228 9.64235 5.50228C7.56365 5.50228 6.14405 7.12675 6.14405 9.17043C6.14405 11.2141 7.61436 12.891 9.64235 12.891Z" fill="#252525"/>
<path d="M17.1978 9.22329C17.1978 6.0265 19.7837 3.66821 22.8259 3.66821C25.8682 3.66821 28.4541 6.0265 28.4541 9.22329C28.4541 12.4201 25.8682 14.7784 22.8259 14.7784C19.7837 14.7784 17.1978 12.4201 17.1978 9.22329ZM22.8259 12.8918C24.9048 12.8918 26.2738 11.2672 26.2738 9.22329C26.2738 7.17944 24.8541 5.55484 22.8259 5.55484C20.7978 5.55484 19.3781 7.17944 19.3781 9.22329C19.3781 11.2672 20.7471 12.8918 22.8259 12.8918Z" fill="#252525"/>
<path d="M36.06 14.7784C32.8149 14.7784 30.3811 12.4201 30.3811 9.22329C30.3811 6.0265 32.7642 3.66821 36.0092 3.66821C38.4938 3.66821 40.7754 5.03077 41.3839 7.7035H39.2543C38.7473 6.28853 37.4797 5.55484 36.06 5.55484C33.8797 5.55484 32.5614 7.23184 32.5614 9.27569C32.5614 11.3196 33.9304 12.9442 36.1107 12.9442C37.5304 12.9442 38.798 12.2629 39.305 10.7431H41.4346C40.674 13.4683 38.4431 14.7784 36.06 14.7784Z" fill="#252525"/>
<path d="M49.0908 13.2579L45.6936 5.92161H45.6429V14.568H43.6655V3.87793H46.8091L50.1556 11.1619H50.2063L53.5528 3.87793H56.6965V14.5156H54.719V5.92161H54.6683L51.2711 13.2579H49.0908Z" fill="#252525"/>
<path d="M58.9275 9.22329C58.9275 6.0265 61.5134 3.66821 64.5557 3.66821C67.5979 3.66821 70.1839 6.0265 70.1839 9.22329C70.1839 12.4201 67.5979 14.7784 64.5557 14.7784C61.5134 14.7784 58.9275 12.4201 58.9275 9.22329ZM64.6064 12.8918C66.6853 12.8918 68.0543 11.2672 68.0543 9.22329C68.0543 7.17944 66.6346 5.55484 64.6064 5.55484C62.5275 5.55484 61.1585 7.17944 61.1585 9.22329C61.1078 11.2672 62.5275 12.8918 64.6064 12.8918Z" fill="#252525"/>
<path d="M71.2488 14.6212V12.4201H71.2995C71.7051 12.4201 72.1615 12.2629 72.4657 11.8961C72.8713 11.4768 73.0234 10.6383 73.2263 9.48534L73.5305 7.75592C73.8854 5.81689 74.5446 3.82544 77.384 3.82544H81.3896V14.5164H79.3108V5.81689H77.6882C76.0657 5.81689 75.7615 6.28854 75.3558 8.54202L75.1023 10.1143C74.8488 11.5816 74.4939 12.8394 73.784 13.6255C73.2263 14.2544 72.4657 14.5688 71.4009 14.5688H71.2488V14.6212Z" fill="#252525"/>
<path d="M83.7219 9.22329C83.7219 6.0265 86.3078 3.66821 89.3501 3.66821C92.3923 3.66821 94.9782 6.0265 94.9782 9.22329C94.9782 12.4201 92.3923 14.7784 89.3501 14.7784C86.3078 14.7784 83.7219 12.4201 83.7219 9.22329ZM89.3501 12.8918C91.4289 12.8918 92.798 11.2672 92.798 9.22329C92.798 7.17944 91.3782 5.55484 89.3501 5.55484C87.2712 5.55484 85.9022 7.17944 85.9022 9.22329C85.9022 11.2672 87.3219 12.8918 89.3501 12.8918Z" fill="#252525"/>
<path d="M97.4121 17.1356H95.4346V12.5766H96.753C97.3614 11.8954 97.6656 10.8473 97.9192 9.64208L98.3755 7.65079C98.7811 5.76432 99.5924 3.82544 102.128 3.82544H106.134V12.5766H107.604V17.1356H105.626V14.5679H97.3614V17.1356H97.4121ZM104.105 12.629V5.81672H102.178C100.911 5.81672 100.505 6.86477 100.251 7.96521L99.7952 10.0088C99.5417 11.1618 99.1868 12.105 98.7811 12.4717V12.629H104.105Z" fill="#252525"/>
<path d="M114.803 14.7774C111.508 14.7774 109.125 12.4193 109.125 9.22277C109.125 6.02624 111.508 3.66815 114.702 3.66815C117.186 3.66815 120.127 5.34502 120.127 9.37997V9.79919H111.153C111.356 11.5808 112.724 12.8909 114.752 12.8909C115.969 12.8909 117.389 12.4193 117.795 11.3713H119.924C119.316 13.7294 116.933 14.7774 114.803 14.7774ZM111.255 0H113.383V2.20089H111.255V0ZM118.048 8.17472C117.744 6.55026 116.527 5.50221 114.702 5.50221C112.927 5.50221 111.66 6.65507 111.305 8.17472H118.048ZM115.868 0H117.997V2.20089H115.868V0Z" fill="#252525"/>
<path d="M129.914 3.87793V8.1225H131.638L134.072 3.87793H136.353L133.311 8.96094L136.556 14.5156H134.224L131.638 10.009H129.863V14.5156H127.936V10.009H126.212L123.627 14.5156H121.294L124.539 8.96094L121.497 3.87793H123.779L126.212 8.1225H127.936V3.87793H129.914Z" fill="#252525"/>
<path d="M138.026 9.74745L137.975 3.87793H140.054V6.91751H140.104C140.966 5.81697 142.082 5.29291 143.4 5.29291C145.935 5.29291 147.964 7.23195 147.964 9.95708C147.964 12.7347 145.885 14.7785 142.995 14.7785C140.155 14.7785 138.026 12.6823 138.026 9.74745ZM142.995 12.8919C144.617 12.8919 145.834 11.6865 145.834 10.0619C145.834 8.43729 144.617 7.17954 142.995 7.17954C141.372 7.17954 140.206 8.38489 140.206 10.0619C140.206 11.7389 141.372 12.8919 142.995 12.8919Z" fill="#252525"/>
</g>
</g>
<defs>
<filter id="filter0_d_36_15906" x="0.0146484" y="0" width="151.95" height="28.9983" filterUnits="userSpaceOnUse" color-interpolation-filters="sRGB">
<feFlood flood-opacity="0" result="BackgroundImageFix"/>
<feColorMatrix in="SourceAlpha" type="matrix" values="0 0 0 0 0 0 0 0 0 0 0 0 0 0 0 0 0 0 127 0" result="hardAlpha"/>
<feOffset dy="4"/>
<feGaussianBlur stdDeviation="2"/>
<feComposite in2="hardAlpha" operator="out"/>
<feColorMatrix type="matrix" values="0 0 0 0 0 0 0 0 0 0 0 0 0 0 0 0 0 0 0.25 0"/>
<feBlend mode="normal" in2="BackgroundImageFix" result="effect1_dropShadow_36_15906"/>
<feBlend mode="normal" in="SourceGraphic" in2="effect1_dropShadow_36_15906" result="shape"/>
</filter>
</defs>
</svg>
