<svg width="144" height="21" viewBox="0 0 144 21" fill="none" xmlns="http://www.w3.org/2000/svg">
<g clip-path="url(#clip0_19_332)">
<mask id="mask0_19_332" style="mask-type:luminance" maskUnits="userSpaceOnUse" x="1" y="0" width="146" height="22">
<path d="M1 0.000869751H147V21.0009H1V0.000869751Z" fill="white"/>
</mask>
<g mask="url(#mask0_19_332)">
<path d="M6.64152 3.62112C9.71411 3.62112 12.1817 5.94941 12.1817 9.10478C12.1817 12.2079 9.66344 14.5875 6.79252 14.5875C5.43255 14.5875 4.12325 14.1729 3.16661 13.0349H3.06429V21.0009H1V9.93188C1 6.10436 3.16561 3.62112 6.64152 3.62112ZM6.59185 12.725C8.60547 12.725 10.0161 11.0699 10.0161 9.05346C10.0161 7.08739 8.65614 5.43124 6.59086 5.43124C4.52558 5.43124 3.11594 7.03508 3.11594 9.05346C3.11594 11.0699 4.57723 12.725 6.59185 12.725ZM14.096 9.10478C14.096 5.94941 16.6649 3.62112 19.6869 3.62112C22.7098 3.62112 25.2787 5.94941 25.2787 9.10478C25.2787 12.2592 22.7098 14.5875 19.6869 14.5875C16.6649 14.5875 14.096 12.2592 14.096 9.10478ZM19.6869 12.725C21.7531 12.725 23.1121 11.1212 23.1121 9.10478C23.1121 7.08739 21.7015 5.48355 19.6869 5.48355C17.6722 5.48355 16.2626 7.08739 16.2626 9.10478C16.2626 11.1212 17.6226 12.725 19.6869 12.725ZM32.8335 14.5875C29.6099 14.5875 27.192 12.2592 27.192 9.10478C27.192 5.94941 29.5603 3.62112 32.7838 3.62112C35.2515 3.62112 37.5184 4.96637 38.1224 7.60457H36.0064C35.5038 6.20799 34.2441 5.48355 32.8335 5.48355C30.6679 5.48355 29.3586 7.13872 29.3586 9.15512C29.3586 11.1735 30.7186 12.7773 32.8852 12.7773C34.2948 12.7773 35.5534 12.1042 36.0571 10.604H38.173C37.4181 13.2945 35.2008 14.5875 32.8335 14.5875ZM45.7785 13.0873L42.4039 5.84577H42.3543V14.3802H40.3893V3.83036H43.5126L46.8365 11.0195H46.8862L50.2111 3.82937H53.3343V14.3299H51.3704V5.84577H51.3197L47.9451 13.0873H45.7785ZM55.5506 9.10478C55.5506 5.94941 58.1195 3.62112 61.1415 3.62112C64.1634 3.62112 66.7323 5.94941 66.7323 9.10478C66.7323 12.2592 64.1634 14.5875 61.1415 14.5875C58.1195 14.5875 55.5506 12.2592 55.5506 9.10478ZM61.1921 12.725C63.2574 12.725 64.6174 11.1212 64.6174 9.10478C64.6174 7.08739 63.2067 5.48355 61.1921 5.48355C59.1258 5.48355 57.7669 7.08739 57.7669 9.10478C57.7172 11.1212 59.1268 12.725 61.1921 12.725ZM67.7903 14.4315V12.2602H67.84C68.2433 12.2602 68.6973 12.1042 68.9992 11.742C69.4026 11.3285 69.5536 10.5004 69.7542 9.36337L70.0572 7.6559C70.4099 5.74214 71.0645 3.77706 73.8848 3.77706H77.8644V14.3279H75.7991V5.74313H74.1868C72.5755 5.74313 72.2735 6.20898 71.8702 8.43265L71.6188 9.98418C71.3665 11.4331 71.0139 12.6747 70.3085 13.4505C69.7552 14.0713 68.9993 14.3812 67.9413 14.3812H67.7903V14.4315ZM80.182 9.10478C80.182 5.94941 82.7499 3.62112 85.7718 3.62112C88.7947 3.62112 91.3637 5.94941 91.3637 9.10478C91.3637 12.2592 88.7947 14.5875 85.7718 14.5875C82.7499 14.5875 80.182 12.2592 80.182 9.10478ZM85.7718 12.725C87.8381 12.725 89.1971 11.1212 89.1971 9.10478C89.1971 7.08739 87.7864 5.48355 85.7718 5.48355C83.7075 5.48355 82.3476 7.08739 82.3476 9.10478C82.3476 11.1212 83.7582 12.725 85.7718 12.725ZM93.7816 16.9148H91.8167V12.4141H93.126C93.7309 11.743 94.0329 10.7076 94.2843 9.51833L94.7383 7.55226C95.1406 5.69082 95.9472 3.77706 98.4655 3.77706H102.445V12.4151H103.905V16.9148H101.94V14.3802H93.7309V16.9148H93.7806H93.7816ZM100.429 12.4664V5.74214H98.5162C97.2565 5.74214 96.8532 6.7765 96.6019 7.86316L96.1489 9.88055C95.8966 11.0185 95.5439 11.9493 95.1406 12.3115V12.4664H100.429ZM111.058 14.5875C107.784 14.5875 105.416 12.2592 105.416 9.10478C105.416 5.94941 107.784 3.62112 110.957 3.62112C113.425 3.62112 116.347 5.27628 116.347 9.25974V9.67329H107.431C107.633 11.4321 108.993 12.725 111.007 12.725C112.216 12.725 113.627 12.2592 114.03 11.2248H116.145C115.541 13.5521 113.174 14.5875 111.058 14.5875ZM107.532 0.000869751H109.647V2.17322H107.532V0.000869751ZM114.281 8.06944C113.979 6.46658 112.77 5.43223 110.957 5.43223C109.194 5.43223 107.935 6.57022 107.582 8.06944H114.281ZM112.116 0.000869751H114.231V2.17322H112.116V0.000869751ZM126.068 3.82838V8.01812H127.781L130.199 3.82838H132.465L129.443 8.8462L132.666 14.3289H130.35L127.781 9.88055H126.017V14.3289H124.103V9.88055H122.391L119.823 14.3289H117.505L120.729 8.8462L117.707 3.82838H119.974L122.391 8.01812H124.103V3.82838H126.068ZM134.128 9.62196L134.077 3.82838H136.142V6.82881H136.192C137.048 5.74313 138.157 5.22496 139.466 5.22496C141.984 5.22496 144 7.1397 144 9.82824C144 12.5701 141.935 14.5875 139.064 14.5875C136.243 14.5875 134.128 12.5178 134.128 9.62196ZM139.064 12.725C140.675 12.725 141.884 11.5357 141.884 9.93188C141.884 8.32902 140.675 7.08739 139.064 7.08739C137.451 7.08739 136.293 8.27671 136.293 9.93188C136.293 11.587 137.451 12.725 139.064 12.725Z" fill="#8C64D8"/>
</g>
</g>
<defs>
<clipPath id="clip0_19_332">
<rect width="144" height="20.9983" fill="white" transform="translate(0 0.000869751)"/>
</clipPath>
</defs>
</svg>
