<svg width="19" height="19" viewBox="0 0 19 19" fill="none" xmlns="http://www.w3.org/2000/svg">
<path d="M18.2993 17.2372L13.8184 12.5767C14.9705 11.2071 15.6019 9.48388 15.6019 7.68991C15.6019 3.49848 12.1916 0.088356 8.00024 0.088356C3.80881 0.088356 0.398682 3.49848 0.398682 7.68991C0.398682 11.8814 3.80881 15.2915 8.00024 15.2915C9.57376 15.2915 11.0732 14.8169 12.3553 13.9159L16.8702 18.6117C17.059 18.8077 17.3128 18.9158 17.5848 18.9158C17.8423 18.9158 18.0865 18.8176 18.2719 18.6391C18.6659 18.2601 18.6785 17.6314 18.2993 17.2372ZM8.00024 2.07138C11.0984 2.07138 13.6187 4.59179 13.6187 7.68991C13.6187 10.788 11.0984 13.3085 8.00024 13.3085C4.90211 13.3085 2.38169 10.788 2.38169 7.68991C2.38169 4.59179 4.90211 2.07138 8.00024 2.07138Z" fill="#252525"/>
</svg>
