<svg width="42" height="42" viewBox="0 0 42 42" fill="none" xmlns="http://www.w3.org/2000/svg">
<path d="M21.0003 8.49996C20.7267 8.49989 20.4558 8.55373 20.203 8.6584C19.9502 8.76307 19.7205 8.91653 19.527 9.10999C19.3336 9.30346 19.1801 9.53316 19.0754 9.78595C18.9708 10.0387 18.9169 10.3097 18.917 10.5833V19.7162L13.8531 22.2644C13.6088 22.3873 13.3911 22.5571 13.2124 22.7642C13.0337 22.9712 12.8975 23.2114 12.8116 23.4711C12.7258 23.7308 12.6919 24.0048 12.7119 24.2776C12.732 24.5503 12.8055 24.8165 12.9284 25.0608C13.0513 25.3052 13.2211 25.5229 13.4282 25.7016C13.6352 25.8803 13.8755 26.0165 14.1351 26.1023C14.3948 26.1882 14.6688 26.2221 14.9416 26.202C15.2144 26.182 15.4805 26.1084 15.7249 25.9855L21.9362 22.8605C22.2812 22.6874 22.5713 22.4216 22.774 22.0931C22.9766 21.7645 23.0838 21.386 23.0837 21V10.5833C23.0837 10.3097 23.0299 10.0387 22.9252 9.78595C22.8206 9.53316 22.6671 9.30346 22.4736 9.10999C22.2802 8.91653 22.0505 8.76307 21.7977 8.6584C21.5449 8.55373 21.2739 8.49989 21.0003 8.49996V8.49996ZM21.0003 0.166626C16.8799 0.166626 12.852 1.38848 9.42596 3.67768C5.99993 5.96687 3.32967 9.22059 1.75284 13.0274C0.176019 16.8342 -0.236551 21.0231 0.567308 25.0643C1.37117 29.1056 3.35535 32.8178 6.26894 35.7313C9.18254 38.6449 12.8947 40.6291 16.936 41.433C20.9772 42.2368 25.1661 41.8243 28.9729 40.2474C32.7797 38.6706 36.0334 36.0004 38.3226 32.5743C40.6118 29.1483 41.8337 25.1204 41.8337 21C41.8274 15.4766 39.6304 10.1812 35.7247 6.27555C31.8191 2.36991 26.5237 0.172945 21.0003 0.166626V0.166626ZM21.0003 37.6666C17.704 37.6666 14.4817 36.6891 11.7408 34.8578C9.00001 33.0264 6.8638 30.4235 5.60234 27.378C4.34088 24.3326 4.01083 20.9815 4.65391 17.7485C5.297 14.5154 6.88435 11.5457 9.21522 9.21485C11.5461 6.88397 14.5158 5.29663 17.7488 4.65354C20.9818 4.01045 24.333 4.34051 27.3784 5.60197C30.4238 6.86343 33.0268 8.99964 34.8582 11.7405C36.6895 14.4813 37.667 17.7036 37.667 21C37.6619 25.4187 35.9044 29.655 32.7799 32.7795C29.6554 35.904 25.4191 37.6616 21.0003 37.6666V37.6666Z" fill="#8C64D8"/>
</svg>
